<svg width="24" height="24" viewBox="0 0 24 24" fill="none" xmlns="http://www.w3.org/2000/svg">
<g clip-path="url(#clip0_150_2)">
<path fill-rule="evenodd" clip-rule="evenodd" d="M18.026 3.902C17.874 3.639 17.578 3.41 17.31 3.41C16.83 3.41 16.213 3.89 15.84 4.181C15.281 4.616 14.629 5.029 13.929 5.173C13.411 5.278 12.793 5.199 12.247 5.056C12.157 5.033 11.383 4.762 11.383 4.762C10.311 4.267 9.83499 5.674 9.41199 6.367C9.12199 6.84 8.75699 7.404 8.34199 7.973C8.17628 7.95769 8.00936 7.98399 7.85637 8.04949C7.70339 8.115 7.56917 8.21766 7.46588 8.34815C7.3626 8.47865 7.29352 8.63285 7.2649 8.7968C7.23628 8.96074 7.24903 9.12923 7.30199 9.287C6.99399 9.664 6.70199 10.025 6.42499 10.373C6.23312 10.3188 6.02944 10.3233 5.84011 10.3857C5.65077 10.4482 5.48442 10.5658 5.36243 10.7235C5.24043 10.8812 5.16835 11.0717 5.15544 11.2707C5.14253 11.4696 5.18939 11.6679 5.28999 11.84C4.21799 13.273 3.47999 14.438 3.05399 15.475C2.69399 16.355 2.53999 17.178 2.60699 18.017C2.67399 18.844 2.94899 19.615 3.33399 20.393C3.85599 21.448 5.13599 21.737 6.07299 21.196L20.795 12.696C21.2543 12.4308 21.5895 11.9939 21.7268 11.4816C21.8641 10.9693 21.7922 10.4234 21.527 9.964L18.027 3.902H18.026ZM18.294 8.366L16.875 5.909C16.111 6.455 15.258 6.942 14.33 7.132C13.376 7.327 12.411 7.166 11.743 6.992C11.332 6.885 11.339 7.049 11.118 7.41C10.866 7.823 10.554 8.309 10.198 8.816L10.309 8.871C10.4276 8.92868 10.5335 9.00922 10.6209 9.10801C10.7082 9.2068 10.7751 9.32189 10.8178 9.44664C10.8604 9.57139 10.878 9.70334 10.8695 9.83491C10.861 9.96648 10.8265 10.0951 10.7681 10.2133C10.7097 10.3315 10.6285 10.437 10.5291 10.5237C10.4298 10.6104 10.3143 10.6766 10.1893 10.7184C10.0643 10.7603 9.93223 10.7771 9.80071 10.7677C9.6692 10.7584 9.54083 10.7231 9.42299 10.664L8.94999 10.43C8.71199 10.722 8.48599 11 8.26999 11.27C8.49013 11.4023 8.65091 11.6142 8.71903 11.8619C8.78714 12.1095 8.75737 12.3739 8.63587 12.6002C8.51438 12.8264 8.31047 12.9973 8.06642 13.0773C7.82237 13.1573 7.55689 13.1404 7.32499 13.03L7.01299 12.876C5.92699 14.313 5.26099 15.363 4.90299 16.234C4.63799 16.881 4.56299 17.388 4.59999 17.857C4.63699 18.323 4.79199 18.821 5.09799 19.449L19.794 10.964L19.294 10.098L14.964 12.598C14.7344 12.7285 14.4626 12.7629 14.2077 12.6938C13.9529 12.6246 13.7358 12.4574 13.6037 12.2287C13.4717 12 13.4355 11.7284 13.503 11.4731C13.5705 11.2178 13.7362 10.9996 13.964 10.866L18.294 8.366Z" fill="#EA3D8C"/>
</g>
<defs>
<clipPath id="clip0_150_2">
<rect width="24" height="24" fill="white"/>
</clipPath>
</defs>
</svg>
